<?xml version="1.0" encoding="UTF-8" standalone="no"?>
<!-- Created with Inkscape (http://www.inkscape.org/) -->

<svg
   width="210mm"
   height="210mm"
   viewBox="0 0 210 210"
   version="1.1"
   id="svg5"
   inkscape:version="1.2.2 (1:1.2.2+202305151914+b0a8486541)"
   sodipodi:docname="drawing.svg"
   xmlns:inkscape="http://www.inkscape.org/namespaces/inkscape"
   xmlns:sodipodi="http://sodipodi.sourceforge.net/DTD/sodipodi-0.dtd"
   xmlns="http://www.w3.org/2000/svg"
   xmlns:svg="http://www.w3.org/2000/svg">
  <sodipodi:namedview
     id="namedview7"
     pagecolor="#505050"
     bordercolor="#eeeeee"
     borderopacity="1"
     inkscape:showpageshadow="0"
     inkscape:pageopacity="0"
     inkscape:pagecheckerboard="0"
     inkscape:deskcolor="#505050"
     inkscape:document-units="mm"
     showgrid="false"
     inkscape:zoom="0.50867705"
     inkscape:cx="369.58617"
     inkscape:cy="318.47319"
     inkscape:window-width="1536"
     inkscape:window-height="737"
     inkscape:window-x="0"
     inkscape:window-y="32"
     inkscape:window-maximized="1"
     inkscape:current-layer="layer1" />
  <defs
     id="defs2" />
  <g
     inkscape:label="Layer 1"
     inkscape:groupmode="layer"
     id="layer1"
     transform="translate(-251.13986,70.975425)"
     style="display:inline">
    <g
       aria-label="ARTIST &amp; ANIMATOR"
       transform="matrix(1.1357106,0,0,1.1357106,-47.236766,-3.2272269)"
       id="text117"
       style="font-size:25.4px;font-family:'Bilgres DEMO';-inkscape-font-specification:'Bilgres DEMO';fill:#DB5461;stroke-width:0.264583">
      <path
         d="m 298.49946,76.778959 c 0.40247,-0.156414 0.60511,-0.616675 0.4487,-1.01915 L 296.1419,68.53894 c -0.15641,-0.402475 -0.53779,-0.472264 -0.96394,-0.306649 -1.18375,0.460042 -2.0375,1.418604 -3.3633,1.93385 -0.71025,0.276025 -1.32177,0.104917 -1.47818,-0.297557 -0.15641,-0.402475 0.18827,-0.917941 0.89852,-1.193966 1.3258,-0.515247 2.5936,-0.408435 3.77734,-0.868476 0.42615,-0.165615 0.66952,-0.450951 0.51311,-0.853426 l -2.81546,-7.244544 c -0.15641,-0.402474 -0.61667,-0.605112 -1.01915,-0.448698 -5.30319,2.060986 -8.80528,7.0736 -12.13054,9.455929 -0.36567,0.251114 -0.60904,0.536449 -0.41582,1.033624 l 3.01787,7.765393 c 0.20242,0.52085 0.5654,0.543289 1.00468,0.481575 4.07053,-0.464656 10.02923,0.84395 15.33243,-1.217036 z m -10.73715,-5.119701 c -1.0417,0.404836 -2.29244,0.482151 -2.42125,0.150701 -0.12881,-0.33145 0.8459,-1.119014 1.8876,-1.52385 0.71025,-0.276025 1.14291,-0.144412 1.30852,0.281738 0.17482,0.449824 -0.0646,0.815386 -0.77487,1.091411 z"
         id="path4203" />
      <path
         d="m 282.83712,41.657954 c 0.0534,0.709194 0.75441,0.885674 0.91455,3.013255 0.0591,0.785179 0.055,2.084551 -0.37556,2.116961 -0.1773,0.01335 -0.24321,-0.185469 -0.29713,-0.563487 -0.56949,-3.166588 -2.2398,-5.053138 -4.59534,-4.875835 -2.38086,0.17921 -3.63611,1.776532 -3.34251,5.677098 l 0.83123,11.043161 c 0.0439,0.582552 0.39027,0.785723 0.82086,0.753312 4.2045,-0.316477 9.06264,-0.07083 14.73619,-0.497882 0.43059,-0.03241 0.75849,-0.413698 0.72608,-0.84428 l -0.5891,-7.82646 c -0.0324,-0.430582 -0.37693,-0.608424 -0.83284,-0.574107 -1.24109,0.09342 -2.38386,0.816231 -5.10026,1.275415 -0.65663,0.0749 -1.09293,0.03132 -1.11962,-0.323274 -0.1163,-1.54503 7.30899,-1.03412 6.85144,-7.112924 -0.1468,-1.950283 -0.96085,-3.289961 -1.99931,-3.211795 -1.64635,0.123922 -3.76113,0.79254 -5.9045,1.081233 -0.50276,0.08879 -0.7604,0.38837 -0.72418,0.869609 z m -0.20043,8.166079 c 0.04,0.531896 -0.29168,0.862527 -0.85081,0.879141 l -0.63512,0.02233 c -0.45781,0.009 -0.71246,-0.32845 -0.73915,-0.683047 -0.061,-0.810507 0.38592,-1.302641 0.9938,-1.348397 0.55722,-0.04194 1.16837,0.294134 1.23128,1.129969 z"
         id="path4205" />
      <path
         d="m 275.39512,35.344473 c -0.0988,0.498304 0.0563,0.891566 0.61949,1.05499 1.41545,0.435945 3.2448,1.135196 4.19158,1.322872 0.54813,0.108655 0.84667,-0.09111 0.93557,-0.539582 0.20744,-1.046439 -0.53685,-2.255639 -0.37387,-3.077841 0.1136,-0.57305 0.49182,-0.782912 1.58809,-0.565603 5.95474,1.180386 7.20654,2.049988 8.72637,2.351258 0.42356,0.08396 0.84151,-0.195708 0.92547,-0.619267 l 1.373,-6.926428 c 0.084,-0.423559 -0.1957,-0.841516 -0.61926,-0.925476 -1.51983,-0.30127 -3.0087,0.02506 -8.96343,-1.155328 -1.09627,-0.21731 -1.36584,-0.555582 -1.25225,-1.128632 0.16298,-0.822202 1.31225,-1.656049 1.51475,-2.677573 0.0938,-0.473389 -0.10593,-0.771929 -0.65406,-0.880584 -0.94678,-0.187677 -2.90454,-0.239132 -4.37926,-0.376094 -0.58293,-0.06376 -0.87631,0.2406 -0.97508,0.738904 z"
         id="path4207" />
      <path
         d="m 282.46427,10.672055 -2.21546,5.350675 c -0.22349,0.539761 -0.006,0.877292 0.39309,1.04248 3.89567,1.613013 8.12135,4.022462 13.37816,6.199058 0.39895,0.165188 0.86354,-0.02732 1.02873,-0.426278 l 2.70131,-6.524068 c 0.16519,-0.398954 -0.0273,-0.863541 -0.42628,-1.028729 -5.2568,-2.176597 -9.94891,-3.459588 -13.84457,-5.072601 -0.39896,-0.165188 -0.79149,-0.0803 -1.01498,0.459463 z"
         id="path4209" />
      <path
         d="m 294.62619,3.0688686 c -0.27465,-0.183298 -0.27442,-0.6412029 0.34597,-1.5707954 1.32539,-1.98594749 2.50905,-2.29532816 3.19994,-3.3305561 0.2679,-0.401415 0.19762,-0.7536844 -0.26717,-1.0638809 -0.80283,-0.5357941 -2.97217,-1.403365 -4.38777,-2.1648925 -0.90149,-0.4794853 -3.01578,1.315865 -5.00386,4.2947863 -2.70717,4.0564034 -2.29991,6.7406331 -0.29283,8.0801182 3.40146,2.2700747 7.31432,-3.9132293 8.26504,-3.2787364 0.27466,0.183298 0.34493,0.5355674 -0.31776,1.5285412 -1.63559,2.4507437 -3.41099,2.7316527 -4.00318,3.618991 -0.2679,0.4014149 -0.15537,0.781884 0.21784,1.092035 1.1619,0.958654 3.49264,3.094349 4.48561,3.757042 0.73945,0.493494 3.37535,-1.900397 5.82873,-5.5765124 2.65077,-3.971895 3.16652,-6.9867685 0.61014,-8.69284948 -3.99302,-2.66487032 -7.7511,3.92710258 -8.6807,3.30670948 z"
         id="path4211" />
      <path
         d="m 296.66956,-11.019386 c -0.37644,0.341104 -0.48646,0.749278 -0.13183,1.2163015 0.87627,1.1940264 1.92777,2.8462411 2.57587,3.5614896 0.37521,0.4140912 0.73399,0.4317625 1.07279,0.1247689 0.79054,-0.7163184 0.91416,-2.1308302 1.53529,-2.6936518 0.43292,-0.3922697 0.86168,-0.3351866 1.61211,0.4929959 4.07619,4.4985369 4.56249,5.9430898 5.60286,7.0912519 0.28994,0.31997964 0.79222,0.34471945 1.1122,0.054781 l 5.23261,-4.7413458 c 0.31998,-0.2899385 0.34472,-0.7922239 0.0548,-1.1122035 -1.04037,-1.1481621 -2.43014,-1.7740654 -6.50633,-6.2726027 -0.75043,-0.828182 -0.7651,-1.26048 -0.33219,-1.652749 0.62114,-0.562822 2.04095,-0.546837 2.81267,-1.2461 0.35762,-0.324049 0.37529,-0.682824 8e-5,-1.096915 -0.6481,-0.715249 -2.18899,-1.924028 -3.29112,-2.913392 -0.42992,-0.398803 -0.84693,-0.329431 -1.22337,0.01167 z"
         id="path4213" />
      <path
         d="m 326.99343,-25.291462 c -0.087,-0.21139 0.14375,-0.718407 1.31814,-1.201847 2.34877,-0.966879 3.90024,-0.534296 5.05114,-1.008067 0.44627,-0.183707 0.58446,-0.515272 0.37175,-1.032003 -0.36742,-0.892534 -1.14242,-1.507411 -1.89248,-2.929126 -0.48071,-0.900835 -3.50639,-0.644152 -6.55979,0.612791 -4.29826,1.769389 -6.57534,4.244958 -5.61813,6.570245 0.64781,1.57368 2.28771,1.887455 4.20258,1.868297 0.43382,-0.01377 0.58578,0.08848 0.65346,0.252891 0.0967,0.234878 -0.20728,0.497348 -0.6052,0.798494 -2.41518,1.873188 -3.09514,4.158252 -2.29263,6.107736 0.92821,2.254824 3.2036,2.911292 5.97516,1.770374 3.10038,-1.27628 4.3164,-3.727083 4.3927,-6.94477 0.001,-0.330197 0.0277,-0.533287 0.14512,-0.581631 0.094,-0.03867 0.27077,0.190684 0.39232,0.552669 0.36458,1.552929 -0.88861,2.645636 -0.37617,3.890487 0.17404,0.42278 0.48764,0.65077 0.88693,0.486401 l 6.38867,-2.629912 c 0.39929,-0.164369 0.59276,-0.628561 0.42839,-1.027853 -3.10369,-7.539568 -12.34952,-4.310325 -12.86196,-5.555176 z m 1.2195,4.497153 c -0.35774,-0.869047 -0.11315,-1.409221 0.33311,-1.592928 0.56371,-0.232051 1.68141,-0.252667 1.94247,0.381502 0.29973,0.72812 0.001,1.537696 -0.77387,1.856766 -0.51673,0.212714 -1.21165,0.05929 -1.50171,-0.64534 z"
         id="path4215" />
      <path
         d="m 345.48858,-20.929825 c 0.008,0.431727 0.37006,0.780708 0.80178,0.772744 l 7.74569,-0.142879 c 0.43172,-0.008 0.6288,-0.341855 0.62037,-0.798977 -0.0234,-1.269784 -0.62861,-2.401815 -0.65484,-3.823973 -0.0141,-0.76187 0.35751,-1.276811 0.78924,-1.284775 0.43172,-0.008 0.79663,0.493392 0.81069,1.255262 0.0262,1.422158 -0.51139,2.57527 -0.48797,3.845054 0.008,0.457122 0.19229,0.783987 0.62402,0.776023 l 7.77107,-0.143347 c 0.43173,-0.008 0.78071,-0.370062 0.77275,-0.801788 -0.10494,-5.688633 -3.60165,-10.704995 -4.69055,-14.647983 -0.10955,-0.429853 -0.29341,-0.756718 -0.82672,-0.74688 l -8.32978,0.153653 c -0.55871,0.01031 -0.70499,0.343261 -0.79861,0.776861 -0.96814,3.980933 -4.25208,9.122373 -4.14714,14.811005 z m 8.50955,-8.311756 c -0.0206,-1.11741 0.3383,-2.318034 0.69384,-2.324592 0.35554,-0.0066 0.7585,1.180012 0.77911,2.297422 0.0141,0.76187 -0.25874,1.122563 -0.71587,1.130995 -0.48251,0.0089 -0.74303,-0.341955 -0.75708,-1.103825 z"
         id="path4217" />
      <path
         d="m 386.37377,-31.170184 -6.02673,-1.743306 c -0.53679,-0.155274 -0.8552,0.1228 -0.97519,0.537596 -0.52228,1.805578 -0.21236,4.116296 -1.19341,7.507856 -0.12704,0.439195 -0.23936,0.644676 -0.38576,0.602329 -0.1464,-0.04235 -0.21516,-0.353092 -0.20689,-0.74732 0.0414,-1.971136 0.17285,-5.899293 0.70219,-7.729271 0.11999,-0.414795 -0.0393,-0.778171 -0.67371,-0.961677 l -6.70992,-1.940928 c -0.56119,-0.162332 -0.8796,0.115743 -0.99958,0.530538 -1.16456,4.025952 -3.09116,8.492506 -4.67213,13.958041 -0.14822,0.512393 0.0984,0.848144 0.51319,0.968128 l 7.14912,2.067971 c 0.51239,0.148216 0.8796,-0.115743 0.99958,-0.530538 0.43054,-1.488382 0.15268,-4.001356 1.17608,-7.539314 0.11292,-0.390395 0.23936,-0.644676 0.38576,-0.602329 0.1464,0.04235 0.2081,0.377492 0.19983,0.771719 -0.0619,1.859422 -0.29041,5.574434 -0.89033,7.648409 -0.1341,0.463594 0.0567,0.809628 0.56905,0.957845 l 7.14911,2.06797 c 0.4148,0.119985 0.79552,-0.0079 0.95079,-0.544653 1.58097,-5.465535 2.33639,-10.27087 3.50094,-14.296821 0.11999,-0.414795 0.0236,-0.812855 -0.56199,-0.982245 z"
         id="path4219" />
      <path
         d="m 398.22191,-24.873954 -5.05512,-2.825559 c -0.50995,-0.285035 -0.8706,-0.10834 -1.08127,0.268577 -2.05721,3.68048 -4.94396,7.595651 -7.71995,12.562082 -0.21068,0.376916 -0.0738,0.860817 0.30314,1.071495 l 6.1637,3.4452 c 0.37692,0.210677 0.86082,0.07377 1.07149,-0.303142 2.77599,-4.966431 4.59851,-9.476456 6.65571,-13.156936 0.21068,-0.376917 0.17224,-0.776683 -0.3377,-1.061717 z"
         id="path4221" />
      <path
         d="m 418.59929,-7.9974691 -5.58234,-5.2980249 c -0.38689,-0.367189 -0.83528,-0.337506 -1.09568,0.01066 -1.12904,1.484801 -2.53255,2.77914 -3.72905,3.7446702 -0.66913,0.5205506 -1.56838,1.1728808 -1.80789,0.9455729 -0.25793,-0.2447932 0.29409,-1.1216166 0.83144,-1.8722901 0.90173,-1.245294 2.121,-2.714486 3.54481,-3.919522 0.3341,-0.27823 0.34033,-0.727558 -0.0466,-1.094748 l -5.58233,-5.298025 c -0.42374,-0.40216 -0.81686,-0.320021 -1.11411,-0.0068 -2.90255,3.058307 -6.66691,6.139134 -10.5836,10.266006 -0.29725,0.313201 -0.28411,0.8159233 0.0291,1.1131722 l 5.61918,5.3329949 c 0.29477,0.2797637 0.74317,0.2500805 1.04135,-0.027211 1.08409,-1.1422593 1.43311,-2.9121103 3.58379,-5.1782054 0.43713,-0.4605885 0.63041,-0.6273386 0.75937,-0.504942 0.0921,0.087426 0.007,0.2513614 -0.40088,1.1603402 l -1.68506,3.5834598 c -0.17016,0.3637792 -0.0946,0.5055377 0.0344,0.6279343 0.11054,0.1049114 0.27447,0.1904609 0.61044,-0.015951 l 3.91585,-2.0966197 c 0.53206,-0.265436 0.63885,-0.3041597 0.71254,-0.2342187 0.12897,0.1223966 -0.0275,0.3241172 -0.46459,0.7847056 -2.15069,2.2660951 -3.89989,2.7070687 -4.98398,3.849328 -0.26134,0.3122618 -0.26756,0.7615906 0.0272,1.0413542 l 5.61918,5.332995 c 0.3132,0.2972489 0.81593,0.2841126 1.11317,-0.029088 3.9167,-4.1268724 6.79672,-8.04699 9.69927,-11.1052973 0.29725,-0.3132001 0.35875,-0.7100732 -0.065,-1.1122335 z"
         id="path4223" />
      <path
         d="m 409.314,5.2158399 c -0.37821,0.2083441 -0.5181,0.69139 -0.30976,1.0696015 l 3.73794,6.7855596 c 0.20835,0.378211 0.59561,0.396871 0.99607,0.176271 1.11239,-0.612777 1.83166,-1.675974 3.07753,-2.362284 0.66743,-0.367667 1.29622,-0.279061 1.50457,0.09915 0.20834,0.378212 -0.065,0.934791 -0.73247,1.302457 -1.24587,0.68631 -2.51664,0.748359 -3.62903,1.361136 -0.40046,0.2206 -0.60389,0.535656 -0.39555,0.913868 l 3.7502,6.807807 c 0.20834,0.378211 0.69139,0.518102 1.0696,0.309758 4.98349,-2.745241 7.7908,-8.177546 10.77122,-10.97932 0.32919,-0.297335 0.53262,-0.612391 0.27526,-1.0795934 L 425.40976,2.3229935 C 425.14014,1.8335434 424.77739,1.859379 424.35015,1.9787322 420.37703,2.9784394 414.29749,2.4705988 409.314,5.2158399 Z m 11.32066,3.6524491 c 0.9789,-0.5392438 2.20838,-0.7815382 2.37996,-0.4700699 0.17158,0.3114683 -0.69023,1.2211947 -1.66914,1.7604389 -0.66743,0.367666 -1.11371,0.294518 -1.33431,-0.105941 -0.23285,-0.4227069 -0.0439,-0.8167618 0.62349,-1.184428 z"
         id="path4225" />
      <path
         d="m 433.02048,18.052595 c -0.12366,-0.492718 -0.43195,-0.781972 -1.01094,-0.68903 -1.46598,0.210812 -3.4187,0.36047 -4.35486,0.595433 -0.54199,0.13603 -0.72652,0.444222 -0.61522,0.887668 0.2597,1.034708 1.44937,1.809818 1.65342,2.622802 0.14221,0.566626 -0.11004,0.918003 -1.19402,1.190065 -5.88798,1.47779 -7.39135,1.226606 -8.89414,1.603782 -0.41881,0.105115 -0.67715,0.536583 -0.57203,0.955393 l 1.71893,6.848781 c 0.10512,0.418811 0.53658,0.677148 0.9554,0.572033 1.50279,-0.377176 2.70936,-1.308515 8.59734,-2.786305 1.08398,-0.272062 1.47227,-0.08145 1.61448,0.485177 0.20405,0.812984 -0.47861,2.058019 -0.22509,3.068091 0.11748,0.468082 0.42567,0.652609 0.96766,0.516578 0.93616,-0.234962 2.72811,-1.025154 4.11989,-1.531596 0.55426,-0.191486 0.68942,-0.592038 0.56576,-1.084756 z"
         id="path4227" />
      <path
         d="m 437.40175,46.674051 c 0.16132,-5.509439 -3.30257,-9.574964 -8.96434,-9.740748 -5.43327,-0.159094 -7.78349,3.736187 -7.94481,9.245626 -0.16207,5.534827 1.9562,9.560951 7.38947,9.720044 5.66177,0.165785 9.35761,-3.690094 9.51968,-9.224922 z m -11.78055,-0.34495 c 0.0283,-0.964787 1.15504,-1.262134 3.18617,-1.20266 2.05651,0.06022 3.58964,0.638738 3.56734,1.400411 -0.0245,0.837841 -1.5874,1.274885 -3.64392,1.214668 -2.03113,-0.05947 -3.13858,-0.422244 -3.10959,-1.412419 z"
         id="path4229" />
      <path
         d="m 422.50375,75.553208 c 0.22939,-0.673191 -0.34602,-1.110771 0.34215,-3.130343 0.25397,-0.745318 0.76795,-1.938716 1.17668,-1.799443 0.16829,0.05735 0.15084,0.266072 0.052,0.634903 -0.7197,3.13586 0.0756,5.526769 2.3116,6.288673 2.25999,0.770097 4.04165,-0.206016 5.3033,-3.908564 l 3.57193,-10.482538 c 0.18843,-0.552978 -0.0504,-0.875863 -0.45911,-1.015136 -3.99106,-1.359957 -8.36252,-3.493556 -13.74804,-5.328679 -0.40873,-0.139273 -0.86002,0.08263 -0.99929,0.49135 l -2.53149,7.429138 c -0.13927,0.408723 0.10774,0.707566 0.54051,0.855031 1.17808,0.401434 2.51289,0.185419 5.19141,0.829785 0.6333,0.188963 1.01744,0.400363 0.90275,0.736959 -0.49975,1.466593 -7.12799,-1.919022 -9.09419,3.851183 -0.63083,1.851274 -0.40822,3.403002 0.57752,3.738896 1.56276,0.532513 3.77023,0.748026 5.8548,1.324178 0.49724,0.115765 0.85182,-0.05859 1.00748,-0.515393 z m 3.39097,-7.431446 c 0.17204,-0.504892 0.60695,-0.678707 1.12769,-0.47443 l 0.59287,0.228856 c 0.42457,0.171508 0.52626,0.581835 0.41156,0.918431 -0.26216,0.76936 -0.86643,1.046468 -1.44345,0.849848 -0.52894,-0.180236 -0.95903,-0.729301 -0.68867,-1.522705 z"
         id="path4231" />
    </g>
    <circle
       style="fill:#62a8ac;fill-opacity:1;stroke-width:0.264583"
       id="path335"
       cx="-287.8306"
       cy="-214.37538"
       r="64.67382"
       transform="rotate(150.42118)" />
  </g>
</svg>
